<svg width="16" height="10" viewBox="0 0 16 10" fill="none" xmlns="http://www.w3.org/2000/svg">
<path d="M14.3009 0.324002C14.6009 0.0240018 14.9176 -0.0676687 15.2509 0.0490013C15.6009 0.165671 15.8342 0.399002 15.9509 0.749002C16.0676 1.11567 15.9842 1.44067 15.7009 1.724L8.70091 8.749C8.48421 8.9657 8.25091 9.074 8.00091 9.074C7.76761 9.074 7.53421 8.9657 7.30091 8.749L0.30091 1.724C0.0176095 1.44067 -0.0657902 1.124 0.05091 0.774001C0.16761 0.424001 0.392611 0.182331 0.725911 0.0490007C1.07591 -0.0676693 1.40091 0.0240013 1.70091 0.324001L8.00091 6.599L14.3009 0.324002Z" fill="#333333"/>
</svg>
