<svg width="24" height="24" viewBox="0 0 24 24" fill="none" xmlns="http://www.w3.org/2000/svg">
<path d="M22.775 7.6C22.775 7.6 22.55 6.075 21.925 5.425C21.075 4.55 20.125 4.525 19.7 4.5C16.65 4.25 12 4.25 12 4.25L4.3 4.5C3.875 4.525 2.925 4.55 2.075 5.425C1.45 6.075 1.225 7.6 1.225 7.6C1.225 7.6 1 9.375 1 11.15V12.825C1 14.625 1.225 16.375 1.225 16.375C1.225 16.375 1.45 17.925 2.075 18.575C2.925 19.45 4.05 19.425 4.525 19.5C6.275 19.675 12 19.75 12 19.75C12 19.75 16.65 19.725 19.7 19.5C20.125 19.45 21.075 19.45 21.925 18.575C22.55 17.925 22.775 16.375 22.775 16.375C22.775 16.375 23 14.625 23 12.825V11.15C23 9.375 22.775 7.6 22.775 7.6ZM9.725 14.85V8.65L15.65 11.775L9.725 14.85Z" fill="#333333"/>
</svg>
