<svg width="24" height="24" viewBox="0 0 24 24" fill="none" xmlns="http://www.w3.org/2000/svg">
<path d="M5.7 19.7C5.41667 19.9833 5.1 20.0667 4.75 19.95C4.4 19.8333 4.15833 19.6083 4.025 19.275C3.90833 18.925 4 18.6 4.3 18.3L18.3 4.3C18.5833 4.01667 18.9 3.93333 19.25 4.05C19.6 4.16667 19.8333 4.4 19.95 4.75C20.0833 5.08333 20 5.4 19.7 5.7L5.7 19.7ZM4.3 5.7C4 5.4 3.90833 5.08333 4.025 4.75C4.14167 4.4 4.375 4.16667 4.725 4.05C5.09167 3.93333 5.41667 4.01667 5.7 4.3L19.7 18.3C19.9833 18.5833 20.0667 18.9 19.95 19.25C19.8333 19.6 19.6 19.8417 19.25 19.975C18.9167 20.0917 18.6 20 18.3 19.7L4.3 5.7Z" fill="#333333"/>
</svg>
