<svg width="24" height="24" viewBox="0 0 24 24" fill="none" xmlns="http://www.w3.org/2000/svg">
<path d="M9.025 20.425C7.15833 19.1917 5.51667 17.625 4.1 15.725C2.7 13.8083 2 11.5667 2 9C2 7.91667 2.26667 6.91667 2.8 6C3.35 5.06667 4.08333 4.33333 5 3.8C5.91667 3.26667 6.91667 3 8 3C8.91667 3 9.775 3.19167 10.575 3.575C11.375 3.94167 12.05 4.45833 12.6 5.125C12.7 5.225 12.625 5.3 12.375 5.35C12.125 5.38333 11.875 5.38333 11.625 5.35C11.3917 5.3 11.3167 5.225 11.4 5.125C11.9667 4.45833 12.6417 3.94167 13.425 3.575C14.225 3.19167 15.0833 3 16 3C17.0833 3 18.0833 3.26667 19 3.8C19.9333 4.33333 20.6667 5.06667 21.2 6C21.7333 6.91667 22 7.91667 22 9C22 11.5667 21.2917 13.8083 19.875 15.725C18.475 17.625 16.8417 19.1917 14.975 20.425L14.55 20.7C13.7167 21.25 12.8667 21.525 12 21.525C11.15 21.525 10.3083 21.25 9.475 20.7L9.025 20.425ZM10.55 19.025C11.1 19.3917 11.5833 19.575 12 19.575C12.4333 19.575 12.925 19.3917 13.475 19.025C13.6417 18.925 13.8083 18.8167 13.975 18.7C14.1583 18.5833 14.3333 18.4583 14.5 18.325C16.0333 17.225 17.3333 15.9 18.4 14.35C19.4667 12.7833 20 11 20 9C20 8.23333 19.825 7.55 19.475 6.95C19.1417 6.33333 18.6667 5.85833 18.05 5.525C17.45 5.175 16.7667 5 16 5C15.35 5 14.775 5.11667 14.275 5.35C13.7917 5.58333 13.35 5.93333 12.95 6.4C12.7 6.71667 12.3833 6.875 12 6.875C11.6167 6.875 11.3 6.71667 11.05 6.4C10.65 5.93333 10.2 5.58333 9.7 5.35C9.21667 5.11667 8.65 5 8 5C7.23333 5 6.54167 5.175 5.925 5.525C5.325 5.85833 4.85 6.33333 4.5 6.95C4.16667 7.55 4 8.23333 4 9C4 11 4.53333 12.7833 5.6 14.35C6.66667 15.9 7.96667 17.225 9.5 18.325C9.66667 18.4583 9.84167 18.5833 10.025 18.7C10.2083 18.8167 10.3833 18.925 10.55 19.025Z" fill="#333333"/>
</svg>
