<svg width="24" height="24" viewBox="0 0 24 24" fill="none" xmlns="http://www.w3.org/2000/svg">
<path d="M11 19.5C9.46667 19.5 8.04167 19.125 6.725 18.375C5.425 17.6083 4.39167 16.575 3.625 15.275C2.875 13.9583 2.5 12.5333 2.5 11C2.5 9.46667 2.875 8.05 3.625 6.75C4.39167 5.43333 5.425 4.4 6.725 3.65C8.04167 2.88333 9.46667 2.5 11 2.5C12.5333 2.5 13.95 2.88333 15.25 3.65C16.5667 4.4 17.6 5.43333 18.35 6.75C19.1167 8.05 19.5 9.46667 19.5 11C19.5 12.5333 19.1167 13.9583 18.35 15.275C17.6 16.575 16.5667 17.6083 15.25 18.375C13.95 19.125 12.5333 19.5 11 19.5ZM11 17.5C12.2333 17.5 13.3417 17.225 14.325 16.675C15.325 16.1083 16.1 15.3333 16.65 14.35C17.2167 13.35 17.5 12.2333 17.5 11C17.5 9.76667 17.2167 8.65833 16.65 7.675C16.1 6.675 15.325 5.9 14.325 5.35C13.3417 4.78333 12.2333 4.5 11 4.5C9.76667 4.5 8.65 4.78333 7.65 5.35C6.66667 5.9 5.89167 6.675 5.325 7.675C4.775 8.65833 4.5 9.76667 4.5 11C4.5 12.2333 4.775 13.35 5.325 14.35C5.89167 15.3333 6.66667 16.1083 7.65 16.675C8.65 17.225 9.76667 17.5 11 17.5ZM15.075 16.5L16.5 15.075L20.7 19.3C20.9833 19.5833 21.0667 19.9 20.95 20.25C20.8333 20.6 20.6 20.8417 20.25 20.975C19.9167 21.0917 19.6 21 19.3 20.7L15.075 16.5Z" fill="#333333"/>
</svg>
