<svg width="24" height="24" viewBox="0 0 24 24" fill="none" xmlns="http://www.w3.org/2000/svg">
<path d="M8 22C7.28333 22 6.61667 21.825 6 21.475C5.38333 21.1083 4.89167 20.6167 4.525 20C4.175 19.3833 4 18.7167 4 18V10C4 9.28333 4.175 8.61667 4.525 8C4.89167 7.38333 5.38333 6.9 6 6.55C6.61667 6.18333 7.28333 6 8 6H16C16.7167 6 17.3833 6.18333 18 6.55C18.6167 6.9 19.1 7.38333 19.45 8C19.8167 8.61667 20 9.28333 20 10V18C20 18.7167 19.8167 19.3833 19.45 20C19.1 20.6167 18.6167 21.1083 18 21.475C17.3833 21.825 16.7167 22 16 22H8ZM16 20C16.6167 20 17.1 19.825 17.45 19.475C17.8167 19.1083 18 18.6167 18 18V10C18 9.38333 17.8167 8.9 17.45 8.55C17.1 8.18333 16.6167 8 16 8H8C7.38333 8 6.89167 8.18333 6.525 8.55C6.175 8.9 6 9.38333 6 10V18C6 18.6167 6.175 19.1083 6.525 19.475C6.89167 19.825 7.38333 20 8 20H16ZM8 6C8 5.28333 8.175 4.61667 8.525 4C8.89167 3.38333 9.38333 2.9 10 2.55C10.6167 2.18333 11.2833 2 12 2C12.7167 2 13.3833 2.18333 14 2.55C14.6167 2.9 15.1 3.38333 15.45 4C15.8167 4.61667 16 5.28333 16 6V9C16 9.41667 15.8333 9.70833 15.5 9.875C15.1667 10.025 14.8333 10.025 14.5 9.875C14.1667 9.70833 14 9.41667 14 9V6C14 5.38333 13.8167 4.9 13.45 4.55C13.1 4.18333 12.6167 4 12 4C11.3833 4 10.8917 4.18333 10.525 4.55C10.175 4.9 10 5.38333 10 6V9C10 9.41667 9.83333 9.70833 9.5 9.875C9.16667 10.025 8.83333 10.025 8.5 9.875C8.16667 9.70833 8 9.41667 8 9V6Z" fill="#333333"/>
</svg>
