<svg width="20" height="20" viewBox="0 0 20 20" fill="none" xmlns="http://www.w3.org/2000/svg">
<path d="M10 20C8.36667 20 6.83333 19.625 5.4 18.875C3.96667 18.125 2.79167 17.1083 1.875 15.825C2.575 14.975 3.65833 14.2917 5.125 13.775C6.60833 13.2583 8.23333 13 10 13C11.7833 13 13.4083 13.2583 14.875 13.775C16.3417 14.2917 17.425 14.975 18.125 15.825C17.2083 17.1083 16.0333 18.125 14.6 18.875C13.1833 19.625 11.65 20 10 20ZM10 18C11.0167 18 11.9583 17.8333 12.825 17.5C13.7083 17.1667 14.5 16.6917 15.2 16.075C14.5333 15.725 13.7583 15.4583 12.875 15.275C12.0083 15.0917 11.05 15 10 15C8.95 15 7.98333 15.0917 7.1 15.275C6.23333 15.4583 5.475 15.725 4.825 16.075C5.50833 16.6917 6.28333 17.1667 7.15 17.5C8.03333 17.8333 8.98333 18 10 18ZM10 12C9.28333 12 8.61667 11.825 8 11.475C7.38333 11.1083 6.89167 10.6167 6.525 10C6.175 9.38333 6 8.71667 6 8C6 7.28333 6.175 6.61667 6.525 6C6.89167 5.38333 7.38333 4.9 8 4.55C8.61667 4.18333 9.28333 4 10 4C10.7167 4 11.3833 4.18333 12 4.55C12.6167 4.9 13.1 5.38333 13.45 6C13.8167 6.61667 14 7.28333 14 8C14 8.71667 13.8167 9.38333 13.45 10C13.1 10.6167 12.6167 11.1083 12 11.475C11.3833 11.825 10.7167 12 10 12ZM10 10C10.6333 10 11.125 9.825 11.475 9.475C11.825 9.10833 12 8.61667 12 8C12 7.36667 11.825 6.875 11.475 6.525C11.125 6.175 10.6333 6 10 6C9.38333 6 8.89167 6.175 8.525 6.525C8.175 6.875 8 7.36667 8 8C8 8.61667 8.175 9.10833 8.525 9.475C8.89167 9.825 9.38333 10 10 10ZM10 20C8.2 20 6.53333 19.55 5 18.65C3.46667 17.75 2.25 16.5333 1.35 15C0.45 13.4667 5.96046e-08 11.8 5.96046e-08 10C5.96046e-08 8.2 0.45 6.53333 1.35 5C2.25 3.45 3.46667 2.23333 5 1.35C6.53333 0.449999 8.2 -4.76837e-07 10 -4.76837e-07C11.8 -4.76837e-07 13.4667 0.449999 15 1.35C16.55 2.23333 17.7667 3.45 18.65 5C19.55 6.53333 20 8.2 20 10C20 11.8 19.55 13.4667 18.65 15C17.7667 16.5333 16.55 17.75 15 18.65C13.4667 19.55 11.8 20 10 20ZM10 18C11.4833 18 12.8333 17.65 14.05 16.95C15.2833 16.25 16.25 15.2917 16.95 14.075C17.65 12.8417 18 11.4833 18 10C18 8.51667 17.65 7.16667 16.95 5.95C16.25 4.71667 15.2833 3.75 14.05 3.05C12.8333 2.35 11.4833 2 10 2C8.51667 2 7.15833 2.35 5.925 3.05C4.70833 3.75 3.75 4.71667 3.05 5.95C2.35 7.16667 2 8.51667 2 10C2 11.4833 2.35 12.8417 3.05 14.075C3.75 15.2917 4.70833 16.25 5.925 16.95C7.15833 17.65 8.51667 18 10 18Z" fill="#333333"/>
</svg>
