<svg width="20" height="20" viewBox="0 0 20 20" fill="none" xmlns="http://www.w3.org/2000/svg">
<path d="M2 11C1.58333 11 1.29167 10.8333 1.125 10.5C0.975 10.1667 0.975 9.83333 1.125 9.5C1.29167 9.16667 1.58333 9 2 9H18C18.4167 9 18.7 9.16667 18.85 9.5C19.0167 9.83333 19.0167 10.1667 18.85 10.5C18.7 10.8333 18.4167 11 18 11H2ZM9 2C9 1.58333 9.16667 1.3 9.5 1.15C9.83333 0.983332 10.1667 0.983332 10.5 1.15C10.8333 1.3 11 1.58333 11 2V18C11 18.4167 10.8333 18.7083 10.5 18.875C10.1667 19.025 9.83333 19.025 9.5 18.875C9.16667 18.7083 9 18.4167 9 18V2Z" fill="#333333"/>
</svg>
