<svg width="19" height="20" viewBox="0 0 19 20" fill="none" xmlns="http://www.w3.org/2000/svg">
<path d="M1.7915 11C1.37484 11 1.08317 10.8333 0.916504 10.5C0.766504 10.1667 0.766504 9.83333 0.916504 9.5C1.08317 9.16667 1.37484 9 1.7915 9H17.7915C18.2082 9 18.4915 9.16667 18.6415 9.5C18.8082 9.83333 18.8082 10.1667 18.6415 10.5C18.4915 10.8333 18.2082 11 17.7915 11H1.7915ZM8.7915 2C8.7915 1.58333 8.95817 1.3 9.2915 1.15C9.62484 0.983332 9.95817 0.983332 10.2915 1.15C10.6248 1.3 10.7915 1.58333 10.7915 2V18C10.7915 18.4167 10.6248 18.7083 10.2915 18.875C9.95817 19.025 9.62484 19.025 9.2915 18.875C8.95817 18.7083 8.7915 18.4167 8.7915 18V2Z" fill="#796541"/>
</svg>
