<svg xmlns="http://www.w3.org/2000/svg" width="25" height="25" viewBox="0 0 25 25"><g><g><path fill="#222" d="M19.04 10.975c-.055-3.758-2.877-6.943-6.575-7.727-3.135-.666-6.66.338-8.565 2.988-1.925 2.678-1.431 6.317.654 8.75 2.172 2.534 5.775 3.533 8.994 2.668a7.88 7.88 0 0 0 2.284-1.024l-.957-1.039c-.699-.758.767-2.732 1.58-1.849l.986 1.07.17.184a6.668 6.668 0 0 0 1.43-4.021zm1.879-1l.001.056c0 .033 0 .066-.002.1a10.34 10.34 0 0 1-2.186 6.082l5.569 6.042c.698.758-.767 2.732-1.58 1.849l-.986-1.07-4.695-5.094a10.374 10.374 0 0 1-4.1 2.027c-3.987.96-8.431-.611-10.663-4.066C0 12.38.494 7.815 3.102 4.603c2.624-3.233 7.141-4.64 11.15-3.375 3.881 1.226 6.583 4.713 6.667 8.746z"/></g></g></svg>